# xmcd
#
# Track frame offsets:
#	150
#	13411
#	30780
#	45304
#	58638
#	73050
#	94782
#	107249
#	121444
#	136615
#	148739
#	166125
#	180118
#	195549
#
# Disc length: 2785 seconds
#
# Revision: 1
# Processed by: cddbd v1.5.2PL0 Copyright (c) Steve Scherf et al.
# Submitted via: audiograbber 1.83.01
#
DISCID=b30adf0e
DTITLE=Speedometer - Four Flights Up
DYEAR=2007
DGENRE=Funk
TTITLE0=Meter's Running
TTITLE1=No Man Worries (feat Ria Currie)
TTITLE2=Same Old Thing
TTITLE3=Make It Alright (feat Robert Moore)
TTITLE4=Am I Your Woman (feat Ria Currie)
TTITLE5=Four Flights Up
TTITLE6=Main Man
TTITLE7=Take A Chance (feat Ria Currie)
TTITLE8=Straight
TTITLE9=Do Right Man (feat Robert Moore)
TTITLE10=The Real Me (feat Ria Currie)
TTITLE11=Safari Of Soul
TTITLE12=This Ain't Movin' (feat Ria Currie)
TTITLE13=Chicken Run
EXTD=
EXTT0=
EXTT1=
EXTT2=
EXTT3=
EXTT4=
EXTT5=
EXTT6=
EXTT7=
EXTT8=
EXTT9=
EXTT10=
EXTT11=
EXTT12=
EXTT13=
PLAYORDER=
